<svg xmlns="http://www.w3.org/2000/svg" viewBox="0 0 696.37 106.94"><defs><style>.cls-1{fill:#fff;}.cls-2{fill:#fcbf30;}.cls-3{fill:none;stroke:#fcbf30;stroke-linecap:round;stroke-miterlimit:10;stroke-width:8.19px;}</style></defs><g id="Layer_2" data-name="Layer 2"><g id="Layer_1-2" data-name="Layer 1"><path class="cls-1" d="M29.56,106.8C10.12,106.8,0,93.3,0,79.94a4.26,4.26,0,0,1,4.32-4.32,4.35,4.35,0,0,1,4.32,4.32c0,8.77,6.48,18.22,20.92,18.22s21.06-9.45,21.06-18.22c0-11.74-8.37-14.71-21.87-18.63C16.87,57.8,2,53.62,2,36.47c0-12.42,9.45-25,27.54-25s27.68,12.55,27.68,25a4.32,4.32,0,0,1-8.64,0c0-7.83-5.94-16.47-19-16.47s-18.9,8.64-18.9,16.47c0,10.13,7.7,12.83,20.52,16.61,12.42,3.64,28.08,8.1,28.08,26.86C59.26,93.3,49,106.8,29.56,106.8Z"/><path class="cls-1" d="M74.19,106.8a4,4,0,0,1-4-4V16.1a3.66,3.66,0,0,1,1.18-2.77,3.48,3.48,0,0,1,2.77-1.18l52.34.13a3.66,3.66,0,0,1,2.77,1.18,3.82,3.82,0,0,1,1.18,2.77,3.87,3.87,0,0,1-1.18,2.84,3.75,3.75,0,0,1-2.77,1.12l-48.38-.13V55.52h36.18a3.91,3.91,0,0,1,2.77,6.72,3.65,3.65,0,0,1-2.77,1.19H78.15V98.89h48.38a4,4,0,0,1,0,7.91Z"/><path class="cls-1" d="M182.18,106.8a47.65,47.65,0,1,1,35.9-79.1,4.27,4.27,0,0,1-.4,6.07,4.18,4.18,0,0,1-6.08-.4,39.08,39.08,0,1,0,0,51.43,4.42,4.42,0,0,1,6.08-.4,4.29,4.29,0,0,1,.4,6.07A47.57,47.57,0,0,1,182.18,106.8Z"/><path class="cls-1" d="M413,106.8a4.26,4.26,0,0,1-4.32-4.32V29.86l-31.18,46.3A4.23,4.23,0,0,1,374,78.05a4.3,4.3,0,0,1-3.65-1.89l-31.05-46.3v72.62a4.32,4.32,0,1,1-8.63,0V15.82a4.33,4.33,0,0,1,3.1-4.19,4.09,4.09,0,0,1,4.72,1.76L374,66l35.37-52.65a4.36,4.36,0,0,1,4.86-1.76,4.51,4.51,0,0,1,3.1,4.19v86.66A4.35,4.35,0,0,1,413,106.8Z"/><path class="cls-1" d="M461.46,12.21a28,28,0,0,1,19.71,7.58,23.83,23.83,0,0,1,8.11,18.13,23.85,23.85,0,0,1-7.65,17.67,28.05,28.05,0,0,1-18.59,8h-1.31a.54.54,0,0,1-.27.07c.13,0,.07,0-.2-.07h-25.9v39.29a4,4,0,0,1-4,4,4,4,0,0,1-3.95-4V16.17a3.63,3.63,0,0,1,1.19-2.77,3.63,3.63,0,0,1,2.76-1.19ZM462,55.72a20.46,20.46,0,0,0,13.71-5.34,16.42,16.42,0,0,0-.13-25.05,20.54,20.54,0,0,0-14.11-5.21h-26.1v35.6Z"/><path class="cls-1" d="M533.64,12.21a28,28,0,0,1,19.71,7.58,23.83,23.83,0,0,1,8.11,18.13,23.85,23.85,0,0,1-7.65,17.67,28.05,28.05,0,0,1-18.59,8H533.9a.48.48,0,0,1-.26.07c.13,0,.07,0-.2-.07h-25.9v39.29a4,4,0,0,1-7.91,0V16.17a3.66,3.66,0,0,1,1.18-2.77,3.67,3.67,0,0,1,2.77-1.19Zm.53,43.51a20.46,20.46,0,0,0,13.71-5.34,16.43,16.43,0,0,0-.13-25.05,20.54,20.54,0,0,0-14.11-5.21h-26.1v35.6Z"/><rect class="cls-2" x="270.6" width="8.64" height="48.69" rx="4.32"/><path class="cls-3" d="M294.76,20.17a43.53,43.53,0,1,1-39.68,0"/><path class="cls-1" d="M624.7,106.94H569.89a4.3,4.3,0,0,1-4.35-4.36c0-17.81,14.82-28.56,28-38.08,11.83-8.56,23-16.72,23-28.42,0-7.89-6-16.59-19.18-16.59-13.87,0-19,11.29-19,18.22a4.29,4.29,0,1,1-8.57,0A27.44,27.44,0,0,1,576.42,20c3.67-4.21,10.2-9.11,20.94-9.11,18.23,0,27.88,12.65,27.88,25.16,0,16.18-13.6,26-26.65,35.36C587.44,79.6,577,87.22,574.65,98.23H624.7a4.47,4.47,0,0,1,4.35,4.35A4.39,4.39,0,0,1,624.7,106.94Z"/><path class="cls-1" d="M696.37,79.74A4.3,4.3,0,0,1,692,84.09H678.83v18.49a4.31,4.31,0,0,1-4.36,4.36,4.39,4.39,0,0,1-4.35-4.36V84.09H641.56a4.43,4.43,0,0,1-4.08-5.85l24.35-64.6a4.32,4.32,0,0,1,5.57-2.45,4.22,4.22,0,0,1,2.45,5.58l-22,58.61h22.3V61.24A4.36,4.36,0,0,1,674.47,57a4.28,4.28,0,0,1,4.36,4.22V75.38H692A4.3,4.3,0,0,1,696.37,79.74Z"/></g></g></svg>