<svg fill="none" height="206" viewBox="0 0 1020 206" width="1020" xmlns="http://www.w3.org/2000/svg"><g fill="#fff"><path d="m32.6439 70.0893 39.0293 98.1987 39.0308-98.1987h31.077l-55.4384 132.7557h-29.5854l-56.185301-132.7557z"/><path d="m177.439 122.792h69.609c-.995-18.644-15.662-30.08-34.556-30.08-18.148 0-32.32 11.933-35.053 30.08zm-1.494 22.376c.251 9.944 4.227 18.148 11.934 24.86 7.709 6.464 16.657 9.696 26.851 9.696 16.656 0 28.588-6.959 35.8-20.633l21.379 14.169c-11.188 20.633-32.817 32.072-56.683 32.072-19.638 0-36.295-6.464-49.721-19.641-13.177-13.178-19.889-29.834-19.889-49.471 0-19.144 6.464-35.305 19.142-48.7281 12.68-13.4253 28.591-20.1373 47.734-20.1373 20.138 0 36.048 6.2133 47.485 18.8933 11.435 12.6787 17.154 29.0871 17.154 49.7211 0 3.978-.25 6.963-.498 9.199z"/><path d="m375.984 99.9226c-2.487-.4987-5.221-.7466-8.452-.7466-22.624 0-34.557 13.177-34.557 36.295v67.374h-29.584v-132.7557h28.838v21.132c8.204-14.9187 20.387-22.376 36.544-22.376 3.234 0 5.471.248 7.211.7466z"/><path d="m423.919 202.845h-29.585v-132.7557h29.585zm-28.59-189.4397c7.706-7.95599 19.64-7.95599 27.347 0 7.706 7.7067 7.706 19.6414 0 27.3494-7.707 7.704-19.641 7.704-27.347 0-7.706-7.708-7.706-19.6427 0-27.3494z"/><path d="m509.705 175.871c-10.948 0-20.862-4.439-28.038-11.614-7.176-7.176-11.614-17.09-11.614-28.038 0-10.95 4.438-20.864 11.614-28.039 7.176-7.177 17.09-11.6146 28.038-11.6146 10.95 0 20.863 4.4376 28.039 11.6146l20.656-20.656c-12.463-12.4627-29.679-20.1693-48.695-20.1693s-36.23 7.708-48.693 20.1693c-12.463 12.4627-20.169 29.679-20.169 48.695 0 19.014 7.708 36.23 20.169 48.693 12.463 12.463 29.677 20.169 48.693 20.169s36.232-7.706 48.695-20.169l-20.656-20.655c-7.176 7.175-17.089 11.614-28.039 11.614z"/><path d="m763.534 106.384c-7.21 8.205-10.94 18.151-10.94 29.836 0 11.683 3.73 21.627 10.94 29.831 7.456 7.954 17.155 11.932 28.838 11.932 11.684 0 21.383-3.978 28.591-11.932 7.458-8.204 11.186-18.148 11.186-29.831 0-11.685-3.728-21.631-11.186-29.836-7.459-8.204-16.907-12.1813-28.591-12.1813-11.683 0-21.382 3.9773-28.838 12.1813zm-22.873-17.8974c12.183-13.9253 28.342-20.8839 47.983-20.8839 7.211 0 14.916 1.74 23.368 5.468 8.701 3.484 15.165 8.7013 19.641 15.912v-88.503997h29.584v202.366297h-28.838v-20.633c-4.723 7.704-11.437 13.423-20.635 17.153-8.951 3.728-16.905 5.468-23.865 5.468-18.647 0-34.309-6.712-46.741-20.386-12.429-13.671-18.645-29.834-18.645-48.227 0-17.903 5.967-33.815 18.148-47.7334z"/><path d="m919.546 122.792h69.61c-.994-18.644-15.662-30.08-34.556-30.08-18.148 0-32.319 11.933-35.054 30.08zm-1.491 22.376c.249 9.944 4.226 18.148 11.932 24.86 7.708 6.464 16.657 9.696 26.851 9.696 16.656 0 28.59-6.959 35.8-20.633l21.382 14.169c-11.19 20.633-32.819 32.072-56.686 32.072-19.64 0-36.296-6.464-49.721-19.641-13.177-13.178-19.888-29.834-19.888-49.471 0-19.144 6.463-35.305 19.143-48.7281 12.678-13.4253 28.589-20.1373 47.732-20.1373 20.138 0 36.049 6.2133 47.48 18.8933 11.44 12.6787 17.16 29.0871 17.16 49.7211 0 3.978-.25 6.963-.5 9.199z"/></g><path d="m636.556 175.871v29.21c19.016 0 36.232-7.708 48.695-20.169l-20.658-20.655c-7.173 7.175-17.088 11.614-28.037 11.614z" fill="#fe0f62"/><path d="m608.517 164.257-20.654 20.655c12.461 12.461 29.676 20.169 48.693 20.169v-29.21c-10.951 0-20.863-4.439-28.039-11.614z" fill="#fff"/><path d="m685.251 87.524c-12.463-12.4626-29.679-20.1693-48.695-20.1693-19.017 0-36.232 7.708-48.693 20.1693-12.463 12.4627-20.17 29.679-20.17 48.695h29.211c0-10.95 4.439-20.864 11.613-28.04 7.176-7.175 17.088-11.6136 28.039-11.6136 10.949 0 20.864 4.4386 28.037 11.6136 7.176 7.177 11.615 17.09 11.615 28.04h29.212c0-19.016-7.708-36.2323-20.169-48.695" fill="#fff"/></svg>