<?xml version="1.0" encoding="UTF-8"?>
<svg id="Layer_1" data-name="Layer 1" xmlns="http://www.w3.org/2000/svg" viewBox="0 0 312.11 118.94">
  <defs>
    <style>
      .cls-1 {
        fill: #011495;
      }

      .cls-2 {
        fill: #0066fe;
      }
    </style>
  </defs>
  <path class="cls-2" d="m273.52,118.94c.09-.54-.29-.44-.62-.49-4.72-.77-9.1-2.39-12.99-5.2-2.11-1.53-4-3.31-5.45-5.5-.45-.69-.89-1.4-1.64-1.81-.49-.27-.94-.39-1.04.42-.15,1.26-.42,2.51-.48,3.77-.1,2.1-.9,4.09-.81,6.22.02.53-.45.61-.9.61-4.96,0-9.91,0-14.87,0-.56,0-.74-.21-.69-.73.02-.25,0-.5,0-.75,0-38.01,0-76.03,0-114.04,0-.49-.08-1,.25-1.43h19.25c.08,1.4.29,2.79.28,4.2-.03,9.45-.01,18.9,0,28.35,0,2.75,0,5.5.01,8.24,0,.32-.22.79.35.92.42.09.56-.23.76-.51,1.04-1.49,2.31-2.78,3.6-4.03,2.26-2.19,4.99-3.72,7.89-4.87,3.84-1.52,7.91-2.04,12.01-2.3,2.6-.17,5.15.34,7.71.71,4.18.6,8.03,2.1,11.41,4.53,2.82,2.02,5.37,4.4,7.28,7.41,1.9,3,3.41,6.17,4.6,9.47,1.8,4.97,2.23,10.22,2.57,15.44.19,2.9.07,5.82.08,8.74.03,4.39-.07,8.8-.86,13.1-.72,3.91-1.52,7.83-3.3,11.49-1.71,3.53-3.73,6.8-6.54,9.56-2.6,2.56-5.47,4.73-8.92,6.03-2.48.94-5.04,1.63-7.68,1.95-.79,0-1.58-.02-2.36,0-.51.02-1.12-.18-1.39.51h-7.5Zm18.61-43.25c-.06-3.71,0-6.4-.33-9.08-.33-2.64-.78-5.24-1.53-7.8-1.22-4.19-3.36-7.69-7.43-9.61-4.37-2.06-8.93-2.62-13.77-1.8-4.89.82-8.51,3.22-11.16,7.31-2.75,4.23-3.75,9-4.09,13.88-.27,3.99-.18,8.01-.02,12.01.13,3.34.84,6.62,2.06,9.75,1.24,3.16,2.97,6.03,5.7,8.14,3,2.31,6.54,3.16,10.25,3.46,2.46.2,4.88-.26,7.23-.79,3.86-.87,7.03-2.92,9.19-6.35,1.97-3.13,2.71-6.65,3.3-10.23.54-3.28.76-6.58.59-8.88Z"/>
  <path class="cls-2" d="m161.86,118.44c-5.25-.32-10.19-1.61-14.3-5.07-4.03-3.38-6.83-7.52-7.54-12.9-.38-2.86-.45-5.74-.14-8.56.24-2.17.39-4.41,1.27-6.52.89-2.14,1.91-4.16,3.31-6.03,3.49-4.65,8.3-7.41,13.59-9.37,4.75-1.76,9.71-2.7,14.74-3.33,4.1-.51,8.23-.65,12.33-1.02,2.18-.2,4.38.04,6.55-.4.65-.13.82-.33.82-.93-.02-4.28-.12-8.56-1.49-12.65-.76-2.26-2.54-3.88-4.69-4.7-3.79-1.44-7.74-1.81-11.82-1.08-1.44.26-2.9.38-4.31.81-4.17,1.27-7.06,3.98-7.15,8.77-.04,2.1-.24,2.2-2.42,2.01-5.05-.46-10.11-.4-15.17-.01-1.24.09-1.64-.2-1.65-1.42-.02-2.68-.02-5.35.71-7.97.53-1.9,1.39-3.67,2.47-5.26,2.99-4.39,7.02-7.46,12.01-9.44,2.84-1.13,5.72-1.99,8.68-2.53,1.51-.28,3.06-.56,4.63-.6,1.45-.03,2.89-.3,4.33-.26,4.23.12,8.44.43,12.64,1.15,3.09.53,6.04,1.38,8.88,2.62,1.88.82,3.53,2.08,5.29,3.14,2.36,1.43,3.75,3.73,5.12,5.85,1.47,2.27,2.25,5.04,2.75,7.8.92,5.02.7,10.09.71,15.15.01,10.33.04,20.66-.02,30.98-.02,2.54.81,4.39,3.15,5.48.71.33,1.45.48,2.22.5,1.37.03,2.75.04,4.12.04.88,0,1.33.26,1.32,1.29-.06,3.75-.04,7.5,0,11.24,0,.81-.25,1.43-1,1.66-2.07.63-4.17,1.15-6.3,1.54-.23.08-.46.24-.68.24-2.48,0-4.96-.01-7.44-.03-.35-.35-.83-.4-1.27-.43-2.88-.2-5.12-1.83-7.29-3.45-2.08-1.55-3.36-3.81-4.26-6.24-.5-1.36-.8-1.42-1.88-.37-1.46,1.41-2.8,2.94-4.42,4.19-1.79,1.37-3.59,2.71-5.69,3.61-2.84,1.2-5.85,1.78-8.83,2.48-.36.4-.84.22-1.28.27-.89.1-1.82-.26-2.67.23h-5c-.95-.3-1.92-.54-2.93-.5Zm30.43-36.45c0-.62-.1-1.27.02-1.87.2-.95-.24-1.25-1.02-1.15-1.43.18-2.8-.4-4.31.14-1.64.59-3.53.49-5.29.54-4.15.12-8.18.83-12.07,2.11-4.87,1.6-8.83,4.17-9.65,9.91-.69,4.83,1.82,8.41,5.85,9.97,4.24,1.65,8.6,1.61,12.94.3,3.91-1.18,7.33-3.1,9.78-6.51,2.91-4.04,3.76-8.61,3.75-13.44Z"/>
  <path class="cls-2" d="m123.8,0c-.45.73-.36,1.58-.2,2.3.25,1.16.22,2.31.22,3.46,0,36.47,0,72.94-.01,109.41,0,1.67-.77,2.36-2.42,1.98-.83-.19-1.64-.2-2.46-.2-4.54-.01-9.08-.04-13.62.03-1.08.02-1.27-.32-1.27-1.32.04-35.8.04-71.61.05-107.41,0-2.75-.02-5.5-.03-8.24h19.75Z"/>
  <path class="cls-1" d="m207.03,118.94c.12-.09.24-.19.36-.28,2.48.01,4.96.03,7.44.03.23,0,.46-.15.68-.24.09.16.18.33.26.49h-8.75Z"/>
  <path class="cls-1" d="m284.78,118.43c.08.17.16.34.24.51h-4c.27-.69.89-.49,1.39-.51.79-.03,1.58,0,2.36,0Z"/>
  <path class="cls-1" d="m161.86,118.44c1.01-.04,1.98.19,2.93.5h-3.5c.1-.27.61-.06.57-.5Z"/>
  <path class="cls-1" d="m173.75,118.44c.01.17.03.33.04.5h-4c.85-.49,1.78-.13,2.67-.23.44-.05.92.13,1.28-.27Z"/>
  <path class="cls-1" d="m285.52,118.94c0-.05.02-.1.02-.15.08.05.15.1.23.15h-.25Z"/>
  <path class="cls-2" d="m41.6,89.71c1.1-1.97,1.6-4.16,2.4-6.24,1.89-4.89,3.57-9.87,5.45-14.76,1.73-4.49,3.21-9.08,4.91-13.58.72-1.92,1.57-3.84,2.23-5.75.8-2.33,1.77-4.61,2.52-6.96.85-2.64,1.78-5.26,2.78-7.85,1-2.6,1.05-2.58,3.94-2.58,4.5,0,9,0,13.5,0,1.21,0,2.42,0,3.75,0-1.1,2.88-2.2,5.6-3.18,8.36-1.37,3.83-2.95,7.58-4.19,11.47-.45,1.43-.97,2.87-1.6,4.23-1.44,3.11-2.26,6.43-3.5,9.6-1.78,4.55-3.38,9.18-5.09,13.76-2.36,6.3-4.77,12.57-7.12,18.87-1.18,3.16-2.21,6.38-3.44,9.52-1.11,2.82-2.29,5.61-3.12,8.53-.22.77-.81.61-1.31.61-4.29.01-8.58.01-12.87,0-2.21,0-4.41-.03-6.62-.05.24-1.1.91-2.03,1.28-3.07,2.2-6.17,5.06-12.07,7.31-18.23.71-1.94,1.68-3.79,1.98-5.87Z"/>
  <path class="cls-1" d="m41.6,89.71c-.3,2.08-1.27,3.93-1.98,5.87-2.24,6.15-5.11,12.06-7.31,18.23-.37,1.05-1.04,1.97-1.28,3.07-.49-.2-.55-.67-.7-1.09-2.36-6.41-4.72-12.81-7.07-19.22-2.59-7.08-5.16-14.17-7.76-21.25-1.81-4.91-3.65-9.81-5.49-14.72-2.55-6.79-5.12-13.57-7.66-20.36-.83-2.22-1.61-4.45-2.19-6.75-.34-1.33-.22-1.52,1.11-1.52,5.91,0,11.83.02,17.74-.02.91,0,1.26.32,1.57,1.15,2.3,6.26,4.67,12.5,7,18.76,1.69,4.53,3.32,9.09,5.01,13.62,2.71,7.28,5.43,14.55,8.16,21.82.3.8.32,1.69.84,2.41Z"/>
</svg>